<mxfile host="Electron" modified="2024-07-03T03:36:31.355Z" agent="Mozilla/5.0 (Windows NT 10.0; Win64; x64) AppleWebKit/537.36 (KHTML, like Gecko) draw.io/24.6.4 Chrome/124.0.6367.207 Electron/30.0.6 Safari/537.36" etag="QjID8paP0ocY-jJXpQpJ" version="24.6.4" type="device">
  <diagram name="Page-1" id="1eCyzupmgy6bSWSYGle1">
    <mxGraphModel dx="1687" dy="1040" grid="1" gridSize="10" guides="1" tooltips="1" connect="1" arrows="1" fold="1" page="1" pageScale="1" pageWidth="1169" pageHeight="827" math="1" shadow="0">
      <root>
        <mxCell id="0" />
        <mxCell id="1" parent="0" />
        <mxCell id="BMQZwgIaaSXIQQlpnTI8-13" value="" style="group" vertex="1" connectable="0" parent="1">
          <mxGeometry x="40" y="350" width="40" height="240" as="geometry" />
        </mxCell>
        <mxCell id="BMQZwgIaaSXIQQlpnTI8-1" value="" style="endArrow=none;html=1;rounded=0;" edge="1" parent="BMQZwgIaaSXIQQlpnTI8-13">
          <mxGeometry width="50" height="50" relative="1" as="geometry">
            <mxPoint x="40" y="210" as="sourcePoint" />
            <mxPoint x="40" as="targetPoint" />
          </mxGeometry>
        </mxCell>
        <mxCell id="BMQZwgIaaSXIQQlpnTI8-2" value="" style="endArrow=none;html=1;rounded=0;" edge="1" parent="BMQZwgIaaSXIQQlpnTI8-13">
          <mxGeometry width="50" height="50" relative="1" as="geometry">
            <mxPoint y="40" as="sourcePoint" />
            <mxPoint x="40" as="targetPoint" />
          </mxGeometry>
        </mxCell>
        <mxCell id="BMQZwgIaaSXIQQlpnTI8-3" value="" style="endArrow=none;html=1;rounded=0;" edge="1" parent="BMQZwgIaaSXIQQlpnTI8-13">
          <mxGeometry width="50" height="50" relative="1" as="geometry">
            <mxPoint y="60" as="sourcePoint" />
            <mxPoint x="40" y="20" as="targetPoint" />
          </mxGeometry>
        </mxCell>
        <mxCell id="BMQZwgIaaSXIQQlpnTI8-4" value="" style="endArrow=none;html=1;rounded=0;" edge="1" parent="BMQZwgIaaSXIQQlpnTI8-13">
          <mxGeometry width="50" height="50" relative="1" as="geometry">
            <mxPoint y="80" as="sourcePoint" />
            <mxPoint x="40" y="40" as="targetPoint" />
          </mxGeometry>
        </mxCell>
        <mxCell id="BMQZwgIaaSXIQQlpnTI8-5" value="" style="endArrow=none;html=1;rounded=0;" edge="1" parent="BMQZwgIaaSXIQQlpnTI8-13">
          <mxGeometry width="50" height="50" relative="1" as="geometry">
            <mxPoint y="100" as="sourcePoint" />
            <mxPoint x="40" y="60" as="targetPoint" />
          </mxGeometry>
        </mxCell>
        <mxCell id="BMQZwgIaaSXIQQlpnTI8-6" value="" style="endArrow=none;html=1;rounded=0;" edge="1" parent="BMQZwgIaaSXIQQlpnTI8-13">
          <mxGeometry width="50" height="50" relative="1" as="geometry">
            <mxPoint y="120" as="sourcePoint" />
            <mxPoint x="40" y="80" as="targetPoint" />
          </mxGeometry>
        </mxCell>
        <mxCell id="BMQZwgIaaSXIQQlpnTI8-7" value="" style="endArrow=none;html=1;rounded=0;" edge="1" parent="BMQZwgIaaSXIQQlpnTI8-13">
          <mxGeometry width="50" height="50" relative="1" as="geometry">
            <mxPoint y="220" as="sourcePoint" />
            <mxPoint x="40" y="180" as="targetPoint" />
          </mxGeometry>
        </mxCell>
        <mxCell id="BMQZwgIaaSXIQQlpnTI8-8" value="" style="endArrow=none;html=1;rounded=0;" edge="1" parent="BMQZwgIaaSXIQQlpnTI8-13">
          <mxGeometry width="50" height="50" relative="1" as="geometry">
            <mxPoint y="240" as="sourcePoint" />
            <mxPoint x="40" y="200" as="targetPoint" />
          </mxGeometry>
        </mxCell>
        <mxCell id="BMQZwgIaaSXIQQlpnTI8-9" value="" style="endArrow=none;html=1;rounded=0;" edge="1" parent="BMQZwgIaaSXIQQlpnTI8-13">
          <mxGeometry width="50" height="50" relative="1" as="geometry">
            <mxPoint y="140" as="sourcePoint" />
            <mxPoint x="40" y="100" as="targetPoint" />
          </mxGeometry>
        </mxCell>
        <mxCell id="BMQZwgIaaSXIQQlpnTI8-10" value="" style="endArrow=none;html=1;rounded=0;" edge="1" parent="BMQZwgIaaSXIQQlpnTI8-13">
          <mxGeometry width="50" height="50" relative="1" as="geometry">
            <mxPoint y="160" as="sourcePoint" />
            <mxPoint x="40" y="120" as="targetPoint" />
          </mxGeometry>
        </mxCell>
        <mxCell id="BMQZwgIaaSXIQQlpnTI8-11" value="" style="endArrow=none;html=1;rounded=0;" edge="1" parent="BMQZwgIaaSXIQQlpnTI8-13">
          <mxGeometry width="50" height="50" relative="1" as="geometry">
            <mxPoint y="180" as="sourcePoint" />
            <mxPoint x="40" y="140" as="targetPoint" />
          </mxGeometry>
        </mxCell>
        <mxCell id="BMQZwgIaaSXIQQlpnTI8-12" value="" style="endArrow=none;html=1;rounded=0;" edge="1" parent="BMQZwgIaaSXIQQlpnTI8-13">
          <mxGeometry width="50" height="50" relative="1" as="geometry">
            <mxPoint y="200" as="sourcePoint" />
            <mxPoint x="40" y="160" as="targetPoint" />
          </mxGeometry>
        </mxCell>
        <mxCell id="BMQZwgIaaSXIQQlpnTI8-14" value="" style="shape=cylinder3;whiteSpace=wrap;html=1;boundedLbl=1;backgroundOutline=1;size=15;" vertex="1" parent="1">
          <mxGeometry x="200" y="416" width="60" height="80" as="geometry" />
        </mxCell>
        <mxCell id="BMQZwgIaaSXIQQlpnTI8-15" value="" style="endArrow=none;html=1;rounded=0;entryX=0;entryY=0.5;entryDx=0;entryDy=0;entryPerimeter=0;" edge="1" parent="1" target="BMQZwgIaaSXIQQlpnTI8-14">
          <mxGeometry width="50" height="50" relative="1" as="geometry">
            <mxPoint x="80" y="456" as="sourcePoint" />
            <mxPoint x="160" y="445" as="targetPoint" />
          </mxGeometry>
        </mxCell>
        <mxCell id="BMQZwgIaaSXIQQlpnTI8-16" value="" style="ellipse;whiteSpace=wrap;html=1;aspect=fixed;" vertex="1" parent="1">
          <mxGeometry x="440" y="416" width="80" height="80" as="geometry" />
        </mxCell>
        <mxCell id="BMQZwgIaaSXIQQlpnTI8-17" value="" style="ellipse;whiteSpace=wrap;html=1;aspect=fixed;" vertex="1" parent="1">
          <mxGeometry x="700" y="416" width="80" height="80" as="geometry" />
        </mxCell>
        <mxCell id="BMQZwgIaaSXIQQlpnTI8-18" value="" style="endArrow=none;html=1;rounded=0;exitX=1;exitY=0.5;exitDx=0;exitDy=0;exitPerimeter=0;entryX=0;entryY=0.5;entryDx=0;entryDy=0;" edge="1" parent="1" source="BMQZwgIaaSXIQQlpnTI8-14" target="BMQZwgIaaSXIQQlpnTI8-16">
          <mxGeometry width="50" height="50" relative="1" as="geometry">
            <mxPoint x="320" y="456" as="sourcePoint" />
            <mxPoint x="370" y="406" as="targetPoint" />
          </mxGeometry>
        </mxCell>
        <mxCell id="BMQZwgIaaSXIQQlpnTI8-19" value="" style="endArrow=none;html=1;rounded=0;exitX=1;exitY=0.5;exitDx=0;exitDy=0;entryX=0;entryY=0.5;entryDx=0;entryDy=0;" edge="1" parent="1" source="BMQZwgIaaSXIQQlpnTI8-16" target="BMQZwgIaaSXIQQlpnTI8-17">
          <mxGeometry width="50" height="50" relative="1" as="geometry">
            <mxPoint x="540" y="376" as="sourcePoint" />
            <mxPoint x="720" y="376" as="targetPoint" />
          </mxGeometry>
        </mxCell>
        <mxCell id="BMQZwgIaaSXIQQlpnTI8-21" value="" style="endArrow=none;html=1;rounded=0;exitX=1;exitY=0.5;exitDx=0;exitDy=0;entryX=0;entryY=0.5;entryDx=0;entryDy=0;" edge="1" parent="1" source="BMQZwgIaaSXIQQlpnTI8-17">
          <mxGeometry width="50" height="50" relative="1" as="geometry">
            <mxPoint x="810" y="456" as="sourcePoint" />
            <mxPoint x="990" y="456" as="targetPoint" />
          </mxGeometry>
        </mxCell>
        <mxCell id="BMQZwgIaaSXIQQlpnTI8-43" value="" style="group" vertex="1" connectable="0" parent="1">
          <mxGeometry x="40" y="396" width="100" height="100" as="geometry" />
        </mxCell>
        <mxCell id="BMQZwgIaaSXIQQlpnTI8-44" value="&lt;b&gt;&lt;font color=&quot;#ff3333&quot;&gt;\(X_0\)&lt;/font&gt;&lt;/b&gt;" style="endArrow=classic;html=1;rounded=0;fillColor=#e51400;strokeColor=#B20000;" edge="1" parent="BMQZwgIaaSXIQQlpnTI8-43">
          <mxGeometry width="50" height="50" relative="1" as="geometry">
            <mxPoint x="40" y="60" as="sourcePoint" />
            <mxPoint x="100" y="60" as="targetPoint" />
          </mxGeometry>
        </mxCell>
        <mxCell id="BMQZwgIaaSXIQQlpnTI8-45" value="&lt;b&gt;&lt;font color=&quot;#00cc00&quot;&gt;\(Y_0\)&lt;/font&gt;&lt;/b&gt;" style="endArrow=classic;html=1;rounded=0;fillColor=#60a917;strokeColor=#2D7600;" edge="1" parent="BMQZwgIaaSXIQQlpnTI8-43">
          <mxGeometry width="50" height="50" relative="1" as="geometry">
            <mxPoint x="40" y="60" as="sourcePoint" />
            <mxPoint y="100" as="targetPoint" />
          </mxGeometry>
        </mxCell>
        <mxCell id="BMQZwgIaaSXIQQlpnTI8-46" value="&lt;b&gt;&lt;font color=&quot;#3333ff&quot;&gt;\(Z_0\)&lt;/font&gt;&lt;/b&gt;" style="endArrow=classic;html=1;rounded=0;fillColor=#0050ef;strokeColor=#001DBC;" edge="1" parent="BMQZwgIaaSXIQQlpnTI8-43">
          <mxGeometry width="50" height="50" relative="1" as="geometry">
            <mxPoint x="40" y="60" as="sourcePoint" />
            <mxPoint x="40" as="targetPoint" />
          </mxGeometry>
        </mxCell>
        <mxCell id="BMQZwgIaaSXIQQlpnTI8-47" value="" style="group" vertex="1" connectable="0" parent="1">
          <mxGeometry x="190" y="396" width="100" height="100" as="geometry" />
        </mxCell>
        <mxCell id="BMQZwgIaaSXIQQlpnTI8-48" value="&lt;b&gt;&lt;font color=&quot;#ff3333&quot;&gt;\(X_1\)&lt;/font&gt;&lt;/b&gt;" style="endArrow=classic;html=1;rounded=0;fillColor=#e51400;strokeColor=#B20000;" edge="1" parent="BMQZwgIaaSXIQQlpnTI8-47">
          <mxGeometry width="50" height="50" relative="1" as="geometry">
            <mxPoint x="40" y="60" as="sourcePoint" />
            <mxPoint x="100" y="60" as="targetPoint" />
          </mxGeometry>
        </mxCell>
        <mxCell id="BMQZwgIaaSXIQQlpnTI8-49" value="&lt;b&gt;&lt;font color=&quot;#00cc00&quot;&gt;\(Y_1\)&lt;/font&gt;&lt;/b&gt;" style="endArrow=classic;html=1;rounded=0;fillColor=#60a917;strokeColor=#2D7600;" edge="1" parent="BMQZwgIaaSXIQQlpnTI8-47">
          <mxGeometry width="50" height="50" relative="1" as="geometry">
            <mxPoint x="40" y="60" as="sourcePoint" />
            <mxPoint y="100" as="targetPoint" />
          </mxGeometry>
        </mxCell>
        <mxCell id="BMQZwgIaaSXIQQlpnTI8-50" value="&lt;b&gt;&lt;font color=&quot;#3333ff&quot;&gt;\(Z_1\)&lt;/font&gt;&lt;/b&gt;" style="endArrow=classic;html=1;rounded=0;fillColor=#0050ef;strokeColor=#001DBC;" edge="1" parent="BMQZwgIaaSXIQQlpnTI8-47">
          <mxGeometry width="50" height="50" relative="1" as="geometry">
            <mxPoint x="40" y="60" as="sourcePoint" />
            <mxPoint x="40" as="targetPoint" />
          </mxGeometry>
        </mxCell>
        <mxCell id="BMQZwgIaaSXIQQlpnTI8-52" value="&lt;b&gt;&lt;font color=&quot;#ff3333&quot;&gt;\(X_2\)&lt;/font&gt;&lt;/b&gt;" style="endArrow=classic;html=1;rounded=0;fillColor=#e51400;strokeColor=#B20000;" edge="1" parent="1">
          <mxGeometry x="-0.0061" width="50" height="50" relative="1" as="geometry">
            <mxPoint x="480" y="455.65999999999997" as="sourcePoint" />
            <mxPoint x="548" y="455.65999999999997" as="targetPoint" />
            <mxPoint as="offset" />
          </mxGeometry>
        </mxCell>
        <mxCell id="BMQZwgIaaSXIQQlpnTI8-53" value="&lt;b&gt;&lt;font color=&quot;#00cc00&quot;&gt;\(Y_2\)&lt;/font&gt;&lt;/b&gt;" style="endArrow=classic;html=1;rounded=0;fillColor=#60a917;strokeColor=#2D7600;" edge="1" parent="1">
          <mxGeometry width="50" height="50" relative="1" as="geometry">
            <mxPoint x="481.65999999999997" y="456" as="sourcePoint" />
            <mxPoint x="481.65999999999997" y="396" as="targetPoint" />
          </mxGeometry>
        </mxCell>
        <mxCell id="BMQZwgIaaSXIQQlpnTI8-54" value="&lt;b&gt;&lt;font color=&quot;#3333ff&quot;&gt;\(Z_2\)&lt;/font&gt;&lt;/b&gt;" style="endArrow=classic;html=1;rounded=0;fillColor=#0050ef;strokeColor=#001DBC;" edge="1" parent="1">
          <mxGeometry width="50" height="50" relative="1" as="geometry">
            <mxPoint x="482" y="454" as="sourcePoint" />
            <mxPoint x="440" y="496" as="targetPoint" />
          </mxGeometry>
        </mxCell>
        <mxCell id="BMQZwgIaaSXIQQlpnTI8-57" value="&lt;b&gt;&lt;font color=&quot;#3333ff&quot;&gt;\(Z_3\)&lt;/font&gt;&lt;/b&gt;" style="endArrow=classic;html=1;rounded=0;fillColor=#0050ef;strokeColor=#001DBC;" edge="1" parent="1">
          <mxGeometry width="50" height="50" relative="1" as="geometry">
            <mxPoint x="742" y="454" as="sourcePoint" />
            <mxPoint x="700" y="496" as="targetPoint" />
          </mxGeometry>
        </mxCell>
        <mxCell id="BMQZwgIaaSXIQQlpnTI8-58" value="" style="endArrow=none;html=1;rounded=0;" edge="1" parent="1">
          <mxGeometry width="50" height="50" relative="1" as="geometry">
            <mxPoint x="990" y="496" as="sourcePoint" />
            <mxPoint x="990" y="416" as="targetPoint" />
          </mxGeometry>
        </mxCell>
        <mxCell id="BMQZwgIaaSXIQQlpnTI8-61" value="" style="triangle;whiteSpace=wrap;html=1;" vertex="1" parent="1">
          <mxGeometry x="990" y="416" width="40" height="30" as="geometry" />
        </mxCell>
        <mxCell id="BMQZwgIaaSXIQQlpnTI8-62" value="" style="triangle;whiteSpace=wrap;html=1;" vertex="1" parent="1">
          <mxGeometry x="990" y="466" width="40" height="30" as="geometry" />
        </mxCell>
        <mxCell id="BMQZwgIaaSXIQQlpnTI8-63" value="&lt;b&gt;&lt;font color=&quot;#3333ff&quot;&gt;\(Z_4\)&lt;/font&gt;&lt;/b&gt;" style="endArrow=classic;html=1;rounded=0;fillColor=#0050ef;strokeColor=#001DBC;" edge="1" parent="1">
          <mxGeometry width="50" height="50" relative="1" as="geometry">
            <mxPoint x="990" y="454" as="sourcePoint" />
            <mxPoint x="948" y="496" as="targetPoint" />
          </mxGeometry>
        </mxCell>
        <mxCell id="BMQZwgIaaSXIQQlpnTI8-64" value="&lt;b&gt;&lt;font color=&quot;#ff3333&quot;&gt;\(X_3\)&lt;/font&gt;&lt;/b&gt;" style="endArrow=classic;html=1;rounded=0;fillColor=#e51400;strokeColor=#B20000;" edge="1" parent="1">
          <mxGeometry x="-0.0061" width="50" height="50" relative="1" as="geometry">
            <mxPoint x="740" y="455.66" as="sourcePoint" />
            <mxPoint x="808" y="455.66" as="targetPoint" />
            <mxPoint as="offset" />
          </mxGeometry>
        </mxCell>
        <mxCell id="BMQZwgIaaSXIQQlpnTI8-65" value="&lt;b&gt;&lt;font color=&quot;#ff3333&quot;&gt;\(X_4\)&lt;/font&gt;&lt;/b&gt;" style="endArrow=classic;html=1;rounded=0;fillColor=#e51400;strokeColor=#B20000;" edge="1" parent="1">
          <mxGeometry x="-0.0061" width="50" height="50" relative="1" as="geometry">
            <mxPoint x="990" y="455.65999999999997" as="sourcePoint" />
            <mxPoint x="1058" y="455.65999999999997" as="targetPoint" />
            <mxPoint as="offset" />
          </mxGeometry>
        </mxCell>
        <mxCell id="BMQZwgIaaSXIQQlpnTI8-66" value="&lt;b&gt;&lt;font color=&quot;#00cc00&quot;&gt;\(Y_3\)&lt;/font&gt;&lt;/b&gt;" style="endArrow=classic;html=1;rounded=0;fillColor=#60a917;strokeColor=#2D7600;" edge="1" parent="1">
          <mxGeometry width="50" height="50" relative="1" as="geometry">
            <mxPoint x="741.66" y="456" as="sourcePoint" />
            <mxPoint x="741.66" y="396" as="targetPoint" />
          </mxGeometry>
        </mxCell>
        <mxCell id="BMQZwgIaaSXIQQlpnTI8-67" value="&lt;b&gt;&lt;font color=&quot;#00cc00&quot;&gt;\(Y_4\)&lt;/font&gt;&lt;/b&gt;" style="endArrow=classic;html=1;rounded=0;fillColor=#60a917;strokeColor=#2D7600;" edge="1" parent="1">
          <mxGeometry width="50" height="50" relative="1" as="geometry">
            <mxPoint x="990" y="456" as="sourcePoint" />
            <mxPoint x="990" y="396" as="targetPoint" />
          </mxGeometry>
        </mxCell>
      </root>
    </mxGraphModel>
  </diagram>
</mxfile>
